<svg xmlns="http://www.w3.org/2000/svg" width="18" height="18" viewBox="0 0 18 18">
    <path fill="#AFAFAF" fill-rule="evenodd" d="M17.064 2.454h-2.367V.096h-1.146v2.358h-2.367v1.143h2.367v2.359h1.146V3.597h2.367V2.454zM5.9 7.16c.593-.023 1.088-.235 1.483-.638.191-.285.311-.579.368-.879.034-.3.049-.553.049-.757 0-.886-.227-1.78-.683-2.682a2.966 2.966 0 0 0-.842-1.053A2.162 2.162 0 0 0 5.05.745a1.98 1.98 0 0 0-1.524.735 2.76 2.76 0 0 0-.49 1.67c0 .813.239 1.658.716 2.537.231.411.529.759.895 1.044.364.286.783.429 1.253.429zm3.143 6.587c0-.57-.187-1.067-.561-1.491-.395-.402-1.012-.895-1.852-1.48a4.933 4.933 0 0 0-.506-.022c-.114-.015-.409 0-.883.044a9.728 9.728 0 0 0-1.432.317c-.114.045-.277.11-.484.198-.209.095-.42.23-.636.406a2.328 2.328 0 0 0-.526.68c-.165.285-.249.628-.249 1.031 0 .788.358 1.439 1.078 1.951.68.511 1.614.774 2.799.789 1.061-.015 1.873-.248 2.431-.702.548-.446.821-1.019.821-1.721zM8.172.81c.142.087.299.216.476.384.171.175.336.391.5.647.157.241.294.526.415.855.099.328.148.712.148 1.151-.013.803-.192 1.446-.534 1.929a6.125 6.125 0 0 1-.534.647c-.208.198-.43.398-.665.603a3.01 3.01 0 0 0-.373.471 1.041 1.041 0 0 0-.201.636.83.83 0 0 0 .207.581c.117.147.23.274.341.384l.765.625c.474.387.892.814 1.251 1.282.337.474.512 1.096.528 1.864 0 1.088-.485 2.053-1.449 2.894-1.001.87-2.444 1.318-4.331 1.348-1.579-.015-2.756-.35-3.537-1.007C.394 15.492 0 14.758 0 13.905c0-.416.127-.879.384-1.39.248-.511.698-.959 1.348-1.345a7.033 7.033 0 0 1 2.301-.833 17.656 17.656 0 0 1 1.982-.196 4.524 4.524 0 0 1-.433-.684c-.15-.234-.224-.517-.224-.848 0-.199.028-.364.085-.496.049-.14.097-.268.139-.385a6.5 6.5 0 0 1-.726.043c-1.199-.014-2.114-.391-2.742-1.129-.66-.686-.989-1.486-.989-2.4 0-1.104.466-2.104 1.398-3.004C3.165.712 3.832.369 4.522.208A9.68 9.68 0 0 1 6.445 0h4.51L9.562.81h-1.39z"/>
</svg>
