<svg xmlns="http://www.w3.org/2000/svg" width="17" height="14" viewBox="0 0 17 14">
    <path fill="#AFAFAF" fill-rule="evenodd" d="M17 1.657a6.908 6.908 0 0 1-2.002.557A3.543 3.543 0 0 0 16.532.258c-.675.406-1.421.7-2.216.858A3.46 3.46 0 0 0 11.77 0C9.845 0 8.283 1.582 8.283 3.535c0 .276.03.546.09.805-2.9-.148-5.47-1.555-7.19-3.693a3.54 3.54 0 0 0-.472 1.777c0 1.226.616 2.308 1.551 2.942a3.438 3.438 0 0 1-1.58-.443v.045c0 1.712 1.202 3.14 2.8 3.466a3.466 3.466 0 0 1-1.578.06c.444 1.404 1.732 2.426 3.259 2.455A6.94 6.94 0 0 1 0 12.413 9.783 9.783 0 0 0 5.346 14c6.417 0 9.924-5.385 9.924-10.056 0-.153-.002-.306-.01-.457A7.124 7.124 0 0 0 17 1.657"/>
</svg>
