<svg xmlns="http://www.w3.org/2000/svg" viewBox="0 0 157 44">
    <path fill="#000" fill-rule="evenodd" d="M13.12 4.54c-2.48-.4-4.52-1-6.12-1.8V1h31.56v1.74c-1.4.72-3.04 1.22-4.92 1.5v35.58c1.88.32 3.52.8 4.92 1.44V43H23.32v-1.74c.72-.32 1.46-.59 2.22-.81.76-.22 1.54-.43 2.34-.63V4.12H16.66c-.16 6.28-.45 11.49-.87 15.63-.42 4.14-.95 7.56-1.59 10.26-.64 2.7-1.37 4.85-2.19 6.45-.82 1.6-1.71 3.02-2.67 4.26-.8 1.04-1.78 1.8-2.94 2.28-1.16.48-2.28.72-3.36.72-.28-.32-.57-.77-.87-1.35-.3-.58-.58-1.2-.84-1.86-.26-.66-.47-1.32-.63-1.98-.16-.66-.26-1.25-.3-1.77l.9-1.5 6.9 1.26c.6-1 1.19-2.32 1.77-3.96.58-1.64 1.1-3.73 1.56-6.27.46-2.54.84-5.59 1.14-9.15.3-3.56.45-7.76.45-12.6zM43.48 22c0-3.12.43-6.01 1.29-8.67.86-2.66 2.1-4.96 3.72-6.9 1.62-1.94 3.61-3.45 5.97-4.53S59.5.28 62.5.28c3 0 5.68.54 8.04 1.62 2.36 1.08 4.35 2.59 5.97 4.53 1.62 1.94 2.86 4.24 3.72 6.9.86 2.66 1.29 5.55 1.29 8.67s-.43 6.01-1.29 8.67c-.86 2.66-2.1 4.96-3.72 6.9-1.62 1.94-3.61 3.45-5.97 4.53s-5.04 1.62-8.04 1.62c-3 0-5.68-.54-8.04-1.62-2.36-1.08-4.35-2.59-5.97-4.53-1.62-1.94-2.86-4.24-3.72-6.9-.86-2.66-1.29-5.55-1.29-8.67zm6.42 0c0 2.56.27 4.97.81 7.23.54 2.26 1.35 4.23 2.43 5.91 1.08 1.68 2.44 3.01 4.08 3.99 1.64.98 3.58 1.47 5.82 1.47 2.04 0 3.82-.49 5.34-1.47s2.77-2.31 3.75-3.99c.98-1.68 1.72-3.65 2.22-5.91.5-2.26.75-4.67.75-7.23 0-2.56-.26-4.97-.78-7.23-.52-2.26-1.32-4.23-2.4-5.91-1.08-1.68-2.44-3.01-4.08-3.99-1.64-.98-3.58-1.47-5.82-1.47-2.2 0-4.07.49-5.61 1.47s-2.79 2.31-3.75 3.99c-.96 1.68-1.66 3.65-2.1 5.91-.44 2.26-.66 4.67-.66 7.23zm47.22 17.82c1.96.32 3.88.8 5.76 1.44V43H86.44v-1.74c1.6-.64 3.24-1.12 4.92-1.44V4.24c-.8-.16-1.62-.37-2.46-.63-.84-.26-1.66-.55-2.46-.87V1h28.08c0 .8-.02 1.72-.06 2.76a1183 1183 0 0 0-.12 3.24c-.04 1.12-.1 2.21-.18 3.27-.08 1.06-.18 2.01-.3 2.85h-1.56l-3.12-9H97.12v35.7zM118.3 22c0-3.12.43-6.01 1.29-8.67.86-2.66 2.1-4.96 3.72-6.9 1.62-1.94 3.61-3.45 5.97-4.53s5.04-1.62 8.04-1.62c3 0 5.68.54 8.04 1.62 2.36 1.08 4.35 2.59 5.97 4.53 1.62 1.94 2.86 4.24 3.72 6.9.86 2.66 1.29 5.55 1.29 8.67s-.43 6.01-1.29 8.67c-.86 2.66-2.1 4.96-3.72 6.9-1.62 1.94-3.61 3.45-5.97 4.53s-5.04 1.62-8.04 1.62c-3 0-5.68-.54-8.04-1.62-2.36-1.08-4.35-2.59-5.97-4.53-1.62-1.94-2.86-4.24-3.72-6.9-.86-2.66-1.29-5.55-1.29-8.67zm6.42 0c0 2.56.27 4.97.81 7.23.54 2.26 1.35 4.23 2.43 5.91 1.08 1.68 2.44 3.01 4.08 3.99 1.64.98 3.58 1.47 5.82 1.47 2.04 0 3.82-.49 5.34-1.47s2.77-2.31 3.75-3.99c.98-1.68 1.72-3.65 2.22-5.91.5-2.26.75-4.67.75-7.23 0-2.56-.26-4.97-.78-7.23-.52-2.26-1.32-4.23-2.4-5.91-1.08-1.68-2.44-3.01-4.08-3.99-1.64-.98-3.58-1.47-5.82-1.47-2.2 0-4.07.49-5.61 1.47s-2.79 2.31-3.75 3.99c-.96 1.68-1.66 3.65-2.1 5.91-.44 2.26-.66 4.67-.66 7.23z"/>
</svg>
